<svg width="24" height="28" viewBox="0 0 24 28" fill="none" xmlns="http://www.w3.org/2000/svg">
<path d="M18.6667 27.3332H5.33333C3.86057 27.3332 2.66667 26.1393 2.66667 24.6665V7.33317H0V4.6665H5.33333V3.33317C5.33333 1.86041 6.52724 0.666504 8 0.666504H16C17.4728 0.666504 18.6667 1.86041 18.6667 3.33317V4.6665H24V7.33317H21.3333V24.6665C21.3333 26.1393 20.1394 27.3332 18.6667 27.3332ZM5.33333 7.33317V24.6665H18.6667V7.33317H5.33333ZM8 3.33317V4.6665H16V3.33317H8ZM16 21.9998H13.3333V9.99984H16V21.9998ZM10.6667 21.9998H8V9.99984H10.6667V21.9998Z" fill="#FAE634"/>
</svg>
