<svg width="25" height="25" viewBox="0 0 25 25" fill="none" xmlns="http://www.w3.org/2000/svg">
<path d="M1.89332 24.4389C1.5193 24.4382 1.16275 24.2805 0.910658 24.0042C0.653919 23.7301 0.526344 23.3595 0.559991 22.9855L0.886658 19.3935L15.9773 4.3082L20.6933 9.02287L5.60666 24.1069L2.01466 24.4335C1.97332 24.4375 1.93199 24.4389 1.89332 24.4389ZM21.6347 8.0802L16.92 3.36553L19.748 0.537533C19.9981 0.287164 20.3374 0.146484 20.6913 0.146484C21.0452 0.146484 21.3846 0.287164 21.6347 0.537533L24.4627 3.36553C24.713 3.61562 24.8537 3.95499 24.8537 4.30887C24.8537 4.66275 24.713 5.00211 24.4627 5.2522L21.636 8.07887L21.6347 8.0802Z" fill="#FAE634"/>
</svg>
