<svg width="375" height="667" viewBox="0 0 375 667" fill="none" xmlns="http://www.w3.org/2000/svg">
<g clip-path="url(#clip0_2_19)">
<rect width="375" height="667" fill="black"/>
<rect width="375" height="667" fill="black"/>
<rect width="375" height="667" fill="#2B2B2A"/>
<path d="M64.0186 566.124C58.2298 578.075 51.4778 587.248 43.7625 593.645C35.9265 599.984 27.7286 603.688 19.1686 604.758C10.4881 605.769 1.86581 604.201 -6.69813 600.053L7.24754 571.263C10.6249 572.899 14.1995 573.513 17.9714 573.104C21.8019 572.575 25.5573 570.818 29.2377 567.831C32.7974 564.786 36.0684 560.186 39.0505 554.03C41.7402 548.477 43.2677 543.479 43.6329 539.036C43.9981 534.593 43.382 530.792 41.7846 527.634C40.0665 524.417 37.5188 521.99 34.1415 520.354C29.9198 518.31 25.7257 518.513 21.5592 520.966C17.272 523.361 12.8077 528.426 8.16638 536.163L2.43776 545.684C-5.0213 558.315 -14.2094 566.831 -25.1267 571.23C-36.0439 575.629 -47.3525 574.994 -59.0525 569.327C-67.4958 565.237 -73.8285 559.71 -78.0505 552.747C-82.214 545.663 -84.1699 537.711 -83.9183 528.891C-83.7872 520.012 -81.3244 510.624 -76.5296 500.725C-71.501 490.344 -65.394 482.348 -58.2086 476.738C-51.0854 470.948 -43.3023 467.639 -34.8593 466.811C-26.5369 465.924 -18.0334 467.584 -9.34883 471.791L-23.3822 500.761C-26.6389 499.184 -29.9741 498.537 -33.3879 498.821C-36.9223 499.046 -40.2939 500.319 -43.5029 502.64C-46.6534 504.839 -49.3396 508.233 -51.5615 512.82C-53.6665 517.165 -54.7262 521.198 -54.7406 524.917C-54.6965 528.515 -53.7588 531.652 -51.9275 534.327C-50.2168 536.944 -47.914 538.954 -45.0192 540.356C-41.28 542.167 -37.3801 542.417 -33.3194 541.105C-29.2588 539.794 -25.5254 536.237 -22.1194 530.435L-16.303 520.733C-10.7809 511.486 -4.54777 503.998 2.39638 498.271C9.21991 492.485 16.5206 488.942 24.2983 487.642C32.0139 486.164 39.9728 487.411 48.1749 491.384C56.6182 495.474 62.9545 501.3 67.1838 508.863C71.351 516.247 73.2247 524.83 72.805 534.612C72.3853 544.394 69.4565 554.898 64.0186 566.124Z" fill="url(#paint0_linear_2_19)" fill-opacity="0.1"/>
<path d="M96.9793 489.318L-35.0983 425.34L-20.7141 395.645L111.364 459.623L96.9793 489.318Z" fill="url(#paint1_linear_2_19)" fill-opacity="0.1"/>
<path d="M125.926 429.561L-6.15174 365.582L7.88164 336.611L139.959 400.59L125.926 429.561ZM138.205 404.211L113.599 392.292L141.578 334.532L166.184 346.451L138.205 404.211ZM83.3838 377.656L58.7776 365.736L84.7393 312.141L109.346 324.06L83.3838 377.656ZM30.7337 352.152L6.12747 340.233L33.4926 283.74L58.0988 295.659L30.7337 352.152Z" fill="url(#paint2_linear_2_19)" fill-opacity="0.1"/>
<path d="M178.003 322.052L44.8397 257.548L59.2239 227.853L192.387 292.358L178.003 322.052ZM216.858 241.84L141.277 253.069L157.064 220.477L233.522 207.437L216.858 241.84ZM146.191 279.816L122.851 268.511L138.639 235.919C140.744 231.573 141.712 227.422 141.543 223.465C141.313 219.33 140.039 215.658 137.721 212.448C135.342 209.06 132.041 206.344 127.82 204.299C123.598 202.254 119.48 201.377 115.467 201.669C111.392 201.781 107.721 203.058 104.453 205.499C101.124 207.761 98.4063 211.065 96.3013 215.41L80.5137 248.002L55.3647 235.82L70.0121 205.582C75.333 194.597 81.641 185.879 88.936 179.428C96.1104 172.917 104.007 169.067 112.625 167.877C121.244 166.686 130.498 168.487 140.389 173.278L143.284 174.68C153.054 179.413 160.114 185.59 164.464 193.211C168.752 200.653 170.565 209.207 169.904 218.872C169.181 228.358 166.159 238.594 160.838 249.578L146.191 279.816Z" fill="url(#paint3_linear_2_19)" fill-opacity="0.1"/>
<path d="M238.037 198.118L213.747 186.352L225.325 162.452L249.614 174.217L238.037 198.118Z" fill="url(#paint4_linear_2_19)" fill-opacity="0.1"/>
<path d="M280.627 116.766C276.285 125.729 271.02 132.679 264.83 137.617C258.551 142.511 251.891 145.768 244.851 147.388C237.722 148.964 230.734 149.324 223.889 148.468C216.998 147.477 210.747 145.623 205.139 142.906L202.153 141.46C196.002 138.48 190.423 134.548 185.417 129.664C180.321 124.736 176.317 119.052 173.405 112.612C170.538 106.081 169.169 98.9912 169.3 91.3421C169.385 83.5587 171.51 75.3667 175.676 66.766C180.018 57.8032 185.529 50.6923 192.209 45.4331C198.889 40.174 206.201 36.9535 214.145 35.7717C222.043 34.4556 230.147 35.3635 238.459 38.4954L227.605 60.9024C223.317 59.608 219.223 59.4132 215.323 60.3181C211.422 61.223 207.826 63.1136 204.533 65.99C201.285 68.7758 198.587 72.3868 196.438 76.8229C194.289 81.259 193.15 85.5697 193.022 89.755C192.893 93.9402 193.661 97.8889 195.325 101.601C197.033 105.223 199.525 108.61 202.801 111.762C206.031 114.779 209.997 117.427 214.701 119.706C219.315 121.94 223.852 123.412 228.312 124.119C232.725 124.692 236.95 124.503 240.985 123.551C244.973 122.465 248.592 120.529 251.84 117.743C254.998 114.914 257.673 111.236 259.865 106.709C263.198 99.8285 264.332 93.2237 263.265 86.8946C262.242 80.475 259.032 75.343 253.634 71.4988L264.422 49.2276C271.264 53.5481 276.729 59.2133 280.817 66.2233C284.858 73.099 287 80.8988 287.241 89.6226C287.436 98.2121 285.232 107.26 280.627 116.766Z" fill="url(#paint5_linear_2_19)" fill-opacity="0.1"/>
<path d="M334.226 6.11566C329.884 15.0785 324.553 22.1646 318.232 27.3742C311.865 32.4493 305.095 35.9327 297.924 37.8244C290.663 39.6721 283.521 40.2364 276.497 39.5169C269.518 38.707 263.269 36.9656 257.751 34.2925L254.766 32.8464C248.614 29.8666 243.079 25.8442 238.161 20.7792C233.196 15.5799 229.346 9.57901 226.61 2.77654C223.873 -4.02588 222.659 -11.4327 222.965 -19.4439C223.181 -27.4989 225.394 -35.872 229.604 -44.5632C233.814 -53.2544 239.013 -60.1814 245.199 -65.3442C251.296 -70.5509 257.861 -74.1891 264.895 -76.2589C271.928 -78.3287 279.024 -79.0273 286.182 -78.3546C293.249 -77.7257 299.858 -75.9214 306.009 -72.9415L308.995 -71.4954C314.513 -68.8224 319.731 -64.9534 324.649 -59.8884C329.568 -54.8234 333.552 -48.8692 336.604 -42.0259C339.565 -35.2263 341.006 -27.7099 340.927 -19.4767C340.801 -11.3779 338.568 -2.84709 334.226 6.11566ZM313.465 -3.94123C315.745 -8.64894 316.97 -13.2532 317.14 -17.7538C317.353 -22.345 316.648 -26.6544 315.025 -30.6821C313.446 -34.8004 311.086 -38.4587 307.944 -41.6572C304.802 -44.8557 301.06 -47.5066 296.718 -49.61C292.104 -51.8449 287.547 -53.1583 283.046 -53.5503C278.498 -54.0766 274.164 -53.6609 270.044 -52.3034C265.877 -51.0802 262.126 -48.9851 258.79 -46.0182C255.454 -43.0514 252.646 -39.214 250.366 -34.5063C248.085 -29.7986 246.815 -25.2163 246.555 -20.7595C246.295 -16.3027 246.954 -12.0152 248.534 -7.8969C250.066 -3.91297 252.449 -0.299892 255.681 2.94239C258.822 6.14089 262.7 8.85756 267.314 11.0924C271.656 13.1958 276.056 14.4888 280.513 14.9712C284.97 15.4537 289.282 15.0834 293.449 13.8602C297.66 12.5464 301.478 10.428 304.904 7.50499C308.331 4.58193 311.184 0.766487 313.465 -3.94123Z" fill="url(#paint6_linear_2_19)" fill-opacity="0.1"/>
<path d="M310.981 99.8757C316.77 87.9253 323.522 78.7516 331.238 72.3545C339.073 66.0159 347.271 62.3117 355.831 61.2419C364.512 60.2305 373.134 61.7991 381.698 65.9474L367.752 94.737C364.375 93.101 360.801 92.4872 357.029 92.8956C353.198 93.4247 349.443 95.1824 345.762 98.1687C342.203 101.214 338.932 105.814 335.95 111.97C333.26 117.523 331.732 122.521 331.367 126.964C331.002 131.407 331.618 135.208 333.215 138.366C334.933 141.583 337.481 144.01 340.859 145.646C345.08 147.69 349.274 147.487 353.441 145.034C357.728 142.639 362.192 137.574 366.834 129.837L372.562 120.316C380.021 107.685 389.209 99.1693 400.127 94.7704C411.044 90.3714 422.353 91.0057 434.053 96.6732C442.496 100.763 448.829 106.29 453.05 113.253C457.214 120.337 459.17 128.289 458.918 137.109C458.787 145.988 456.324 155.376 451.53 165.275C446.501 175.656 440.394 183.652 433.209 189.262C426.085 195.052 418.302 198.361 409.859 199.189C401.537 200.076 393.033 198.416 384.349 194.209L398.382 165.239C401.639 166.816 404.974 167.463 408.388 167.179C411.922 166.954 415.294 165.681 418.503 163.36C421.653 161.161 424.34 157.767 426.562 153.18C428.667 148.835 429.726 144.802 429.741 141.083C429.697 137.485 428.759 134.348 426.928 131.673C425.217 129.056 422.914 127.046 420.019 125.644C416.28 123.833 412.38 123.583 408.319 124.895C404.259 126.206 400.525 129.763 397.119 135.565L391.303 145.267C385.781 154.514 379.548 162.002 372.604 167.729C365.78 173.515 358.479 177.058 350.702 178.358C342.986 179.836 335.027 178.589 326.825 174.616C318.382 170.526 312.046 164.7 307.816 157.137C303.649 149.753 301.775 141.17 302.195 131.388C302.615 121.606 305.544 111.102 310.981 99.8757Z" fill="url(#paint7_linear_2_19)" fill-opacity="0.1"/>
<path d="M278.021 176.682L410.098 240.66L395.714 270.355L263.636 206.377L278.021 176.682Z" fill="url(#paint8_linear_2_19)" fill-opacity="0.1"/>
<path d="M249.074 236.439L381.152 300.418L367.118 329.389L235.041 265.41L249.074 236.439ZM236.795 261.789L261.401 273.708L233.422 331.468L208.816 319.549L236.795 261.789ZM291.616 288.344L316.222 300.264L290.261 353.859L265.654 341.94L291.616 288.344ZM344.266 313.848L368.873 325.767L341.507 382.26L316.901 370.341L344.266 313.848Z" fill="url(#paint9_linear_2_19)" fill-opacity="0.1"/>
<path d="M196.997 343.948L330.16 408.452L315.776 438.147L182.613 373.642L196.997 343.948ZM158.142 424.16L233.723 412.931L217.936 445.523L141.478 458.563L158.142 424.16ZM228.809 386.184L252.149 397.489L236.361 430.081C234.256 434.427 233.288 438.578 233.457 442.535C233.687 446.67 234.961 450.342 237.279 453.552C239.658 456.94 242.959 459.656 247.18 461.701C251.402 463.746 255.52 464.623 259.533 464.331C263.608 464.219 267.279 462.942 270.547 460.501C273.876 458.239 276.594 454.935 278.699 450.59L294.486 417.998L319.635 430.18L304.988 460.418C299.667 471.403 293.359 480.121 286.064 486.572C278.89 493.083 270.993 496.933 262.375 498.123C253.756 499.314 244.502 497.513 234.611 492.722L231.716 491.32C221.946 486.587 214.886 480.41 210.536 472.789C206.248 465.347 204.435 456.793 205.096 447.128C205.819 437.642 208.841 427.406 214.162 416.422L228.809 386.184Z" fill="url(#paint10_linear_2_19)" fill-opacity="0.1"/>
<path d="M136.963 467.882L161.253 479.648L149.675 503.548L125.386 491.783L136.963 467.882Z" fill="url(#paint11_linear_2_19)" fill-opacity="0.1"/>
<path d="M94.373 549.234C98.7146 540.271 103.98 533.321 110.17 528.383C116.449 523.489 123.109 520.232 130.149 518.612C137.278 517.036 144.266 516.676 151.111 517.532C158.002 518.523 164.253 520.377 169.861 523.094L172.847 524.54C178.998 527.52 184.577 531.452 189.583 536.336C194.679 541.264 198.683 546.948 201.595 553.388C204.462 559.919 205.831 567.009 205.7 574.658C205.615 582.441 203.49 590.633 199.324 599.234C194.982 608.197 189.471 615.308 182.791 620.567C176.111 625.826 168.799 629.046 160.855 630.228C152.957 631.544 144.853 630.637 136.541 627.505L147.395 605.098C151.683 606.392 155.777 606.587 159.677 605.682C163.578 604.777 167.174 602.886 170.467 600.01C173.715 597.224 176.413 593.613 178.562 589.177C180.711 584.741 181.85 580.43 181.978 576.245C182.107 572.06 181.339 568.111 179.675 564.399C177.967 560.777 175.475 557.39 172.199 554.238C168.969 551.221 165.003 548.573 160.299 546.294C155.685 544.06 151.148 542.588 146.688 541.881C142.275 541.308 138.05 541.497 134.015 542.449C130.027 543.535 126.408 545.471 123.16 548.257C120.002 551.086 117.327 554.764 115.135 559.291C111.802 566.172 110.669 572.776 111.735 579.105C112.758 585.525 115.968 590.657 121.366 594.501L110.578 616.772C103.736 612.452 98.2706 606.787 94.183 599.777C90.1419 592.901 88.0005 585.101 87.7587 576.377C87.5635 567.788 89.7683 558.74 94.373 549.234Z" fill="url(#paint12_linear_2_19)" fill-opacity="0.1"/>
<path d="M40.774 659.884C45.1156 650.922 50.4468 643.835 56.7679 638.626C63.1355 633.551 69.9047 630.067 77.0757 628.176C84.3372 626.328 91.4795 625.764 98.5026 626.483C105.482 627.293 111.731 629.034 117.249 631.708L120.234 633.154C126.386 636.133 131.921 640.156 136.839 645.221C141.804 650.42 145.654 656.421 148.39 663.223C151.127 670.026 152.341 677.433 152.035 685.444C151.819 693.499 149.606 701.872 145.396 710.563C141.186 719.254 135.987 726.181 129.801 731.344C123.704 736.551 117.139 740.189 110.105 742.259C103.072 744.329 95.9759 745.027 88.8184 744.355C81.7514 743.726 75.1422 741.921 68.9906 738.942L66.0053 737.495C60.487 734.822 55.2687 730.953 50.3506 725.888C45.4325 720.823 41.4477 714.869 38.3962 708.026C35.4353 701.226 33.9943 693.71 34.0732 685.477C34.1988 677.378 36.4324 668.847 40.774 659.884ZM61.5355 669.941C59.2551 674.649 58.03 679.253 57.8603 683.754C57.6468 688.345 58.3516 692.654 59.9747 696.682C61.5539 700.8 63.9144 704.459 67.056 707.657C70.1977 710.856 73.9397 713.507 78.282 715.61C82.8957 717.845 87.453 719.158 91.9542 719.55C96.502 720.077 100.836 719.661 104.956 718.303C109.123 717.08 112.874 714.985 116.21 712.018C119.546 709.051 122.354 705.214 124.634 700.506C126.915 695.799 128.185 691.216 128.445 686.759C128.705 682.303 128.046 678.015 126.466 673.897C124.934 669.913 122.551 666.3 119.319 663.058C116.178 659.859 112.3 657.142 107.686 654.908C103.344 652.804 98.9442 651.511 94.4869 651.029C90.0296 650.546 85.7176 650.917 81.551 652.14C77.3405 653.454 73.5221 655.572 70.0957 658.495C66.6693 661.418 63.8159 665.234 61.5355 669.941Z" fill="url(#paint13_linear_2_19)" fill-opacity="0.1"/>
</g>
<defs>
<linearGradient id="paint0_linear_2_19" x1="-87.1947" y1="442.054" x2="477.226" y2="97.4467" gradientUnits="userSpaceOnUse">
<stop stop-color="#FAE634"/>
<stop offset="1" stop-color="#EBEBEB" stop-opacity="0"/>
</linearGradient>
<linearGradient id="paint1_linear_2_19" x1="-87.1947" y1="442.054" x2="477.226" y2="97.4467" gradientUnits="userSpaceOnUse">
<stop stop-color="#FAE634"/>
<stop offset="1" stop-color="#EBEBEB" stop-opacity="0"/>
</linearGradient>
<linearGradient id="paint2_linear_2_19" x1="-87.1947" y1="442.054" x2="477.226" y2="97.4467" gradientUnits="userSpaceOnUse">
<stop stop-color="#FAE634"/>
<stop offset="1" stop-color="#EBEBEB" stop-opacity="0"/>
</linearGradient>
<linearGradient id="paint3_linear_2_19" x1="-87.1947" y1="442.054" x2="477.226" y2="97.4467" gradientUnits="userSpaceOnUse">
<stop stop-color="#FAE634"/>
<stop offset="1" stop-color="#EBEBEB" stop-opacity="0"/>
</linearGradient>
<linearGradient id="paint4_linear_2_19" x1="-87.1947" y1="442.054" x2="477.226" y2="97.4467" gradientUnits="userSpaceOnUse">
<stop stop-color="#FAE634"/>
<stop offset="1" stop-color="#EBEBEB" stop-opacity="0"/>
</linearGradient>
<linearGradient id="paint5_linear_2_19" x1="-87.1947" y1="442.054" x2="477.226" y2="97.4467" gradientUnits="userSpaceOnUse">
<stop stop-color="#FAE634"/>
<stop offset="1" stop-color="#EBEBEB" stop-opacity="0"/>
</linearGradient>
<linearGradient id="paint6_linear_2_19" x1="-87.1947" y1="442.054" x2="477.226" y2="97.4467" gradientUnits="userSpaceOnUse">
<stop stop-color="#FAE634"/>
<stop offset="1" stop-color="#EBEBEB" stop-opacity="0"/>
</linearGradient>
<linearGradient id="paint7_linear_2_19" x1="462.195" y1="223.946" x2="-102.226" y2="568.553" gradientUnits="userSpaceOnUse">
<stop stop-color="#FAE634"/>
<stop offset="1" stop-color="#EBEBEB" stop-opacity="0"/>
</linearGradient>
<linearGradient id="paint8_linear_2_19" x1="462.195" y1="223.946" x2="-102.226" y2="568.553" gradientUnits="userSpaceOnUse">
<stop stop-color="#FAE634"/>
<stop offset="1" stop-color="#EBEBEB" stop-opacity="0"/>
</linearGradient>
<linearGradient id="paint9_linear_2_19" x1="462.195" y1="223.946" x2="-102.226" y2="568.553" gradientUnits="userSpaceOnUse">
<stop stop-color="#FAE634"/>
<stop offset="1" stop-color="#EBEBEB" stop-opacity="0"/>
</linearGradient>
<linearGradient id="paint10_linear_2_19" x1="462.195" y1="223.946" x2="-102.226" y2="568.553" gradientUnits="userSpaceOnUse">
<stop stop-color="#FAE634"/>
<stop offset="1" stop-color="#EBEBEB" stop-opacity="0"/>
</linearGradient>
<linearGradient id="paint11_linear_2_19" x1="462.195" y1="223.946" x2="-102.226" y2="568.553" gradientUnits="userSpaceOnUse">
<stop stop-color="#FAE634"/>
<stop offset="1" stop-color="#EBEBEB" stop-opacity="0"/>
</linearGradient>
<linearGradient id="paint12_linear_2_19" x1="462.195" y1="223.946" x2="-102.226" y2="568.553" gradientUnits="userSpaceOnUse">
<stop stop-color="#FAE634"/>
<stop offset="1" stop-color="#EBEBEB" stop-opacity="0"/>
</linearGradient>
<linearGradient id="paint13_linear_2_19" x1="462.195" y1="223.946" x2="-102.226" y2="568.553" gradientUnits="userSpaceOnUse">
<stop stop-color="#FAE634"/>
<stop offset="1" stop-color="#EBEBEB" stop-opacity="0"/>
</linearGradient>
<clipPath id="clip0_2_19">
<rect width="375" height="667" fill="white"/>
</clipPath>
</defs>
</svg>
